<svg width="501" height="104" viewBox="0 0 501 104" fill="none" xmlns="http://www.w3.org/2000/svg">
<path d="M48.384 27.44C51.1147 27.44 53.5253 27.9733 55.616 29.04C57.7493 30.1067 59.4133 31.7493 60.608 33.968C61.8027 36.144 62.4 38.96 62.4 42.416V62H54.4V43.44C54.4 40.4107 53.7387 38.1493 52.416 36.656C51.0933 35.1627 49.1947 34.416 46.72 34.416C44.9707 34.416 43.4133 34.8 42.048 35.568C40.7253 36.336 39.68 37.4667 38.912 38.96C38.1867 40.4533 37.824 42.352 37.824 44.656V62H29.824V43.44C29.824 40.4107 29.1627 38.1493 27.84 36.656C26.5173 35.1627 24.6187 34.416 22.144 34.416C20.3947 34.416 18.8373 34.8 17.472 35.568C16.1493 36.336 15.104 37.4667 14.336 38.96C13.6107 40.4533 13.248 42.352 13.248 44.656V62H5.248V27.824H12.864V36.912L11.52 34.224C12.672 32.0053 14.336 30.32 16.512 29.168C18.7307 28.016 21.248 27.44 24.064 27.44C27.264 27.44 30.0373 28.2293 32.384 29.808C34.7733 31.3867 36.352 33.776 37.12 36.976L33.984 35.888C35.0933 33.328 36.928 31.28 39.488 29.744C42.048 28.208 45.0133 27.44 48.384 27.44ZM93.679 62V55.088L93.231 53.616V41.52C93.231 39.1733 92.527 37.36 91.119 36.08C89.711 34.7573 87.5777 34.096 84.719 34.096C82.799 34.096 80.9003 34.3947 79.023 34.992C77.1883 35.5893 75.631 36.4213 74.351 37.488L71.215 31.664C73.0497 30.256 75.2257 29.2107 77.743 28.528C80.303 27.8027 82.9483 27.44 85.679 27.44C90.6283 27.44 94.447 28.6347 97.135 31.024C99.8657 33.3707 101.231 37.0187 101.231 41.968V62H93.679ZM82.927 62.448C80.367 62.448 78.127 62.0213 76.207 61.168C74.287 60.272 72.7937 59.056 71.727 57.52C70.703 55.9413 70.191 54.1707 70.191 52.208C70.191 50.288 70.639 48.56 71.535 47.024C72.4737 45.488 73.9883 44.272 76.079 43.376C78.1697 42.48 80.943 42.032 84.399 42.032H94.319V47.344H84.975C82.2443 47.344 80.4097 47.792 79.471 48.688C78.5323 49.5413 78.063 50.608 78.063 51.888C78.063 53.3387 78.639 54.4907 79.791 55.344C80.943 56.1973 82.543 56.624 84.591 56.624C86.5537 56.624 88.303 56.176 89.839 55.28C91.4177 54.384 92.5483 53.0613 93.231 51.312L94.575 56.112C93.807 58.1173 92.4203 59.6747 90.415 60.784C88.4523 61.8933 85.9563 62.448 82.927 62.448ZM111.498 62V27.824H119.114V37.232L118.218 34.48C119.242 32.176 120.842 30.4267 123.018 29.232C125.237 28.0373 127.989 27.44 131.274 27.44V35.056C130.933 34.9707 130.613 34.928 130.314 34.928C130.015 34.8853 129.717 34.864 129.418 34.864C126.389 34.864 123.978 35.76 122.186 37.552C120.394 39.3013 119.498 41.9253 119.498 45.424V62H111.498ZM138.061 62V27.824H146.061V62H138.061ZM142.093 22.192C140.599 22.192 139.362 21.7227 138.381 20.784C137.442 19.8453 136.973 18.7147 136.973 17.392C136.973 16.0267 137.442 14.896 138.381 14C139.362 13.0613 140.599 12.592 142.093 12.592C143.586 12.592 144.802 13.04 145.741 13.936C146.722 14.7893 147.213 15.8773 147.213 17.2C147.213 18.608 146.743 19.8027 145.805 20.784C144.866 21.7227 143.629 22.192 142.093 22.192ZM177.617 62V55.088L177.169 53.616V41.52C177.169 39.1733 176.465 37.36 175.057 36.08C173.649 34.7573 171.515 34.096 168.657 34.096C166.737 34.096 164.838 34.3947 162.961 34.992C161.126 35.5893 159.569 36.4213 158.289 37.488L155.153 31.664C156.987 30.256 159.163 29.2107 161.681 28.528C164.241 27.8027 166.886 27.44 169.617 27.44C174.566 27.44 178.385 28.6347 181.073 31.024C183.803 33.3707 185.169 37.0187 185.169 41.968V62H177.617ZM166.865 62.448C164.305 62.448 162.065 62.0213 160.145 61.168C158.225 60.272 156.731 59.056 155.665 57.52C154.641 55.9413 154.129 54.1707 154.129 52.208C154.129 50.288 154.577 48.56 155.473 47.024C156.411 45.488 157.926 44.272 160.017 43.376C162.107 42.48 164.881 42.032 168.337 42.032H178.257V47.344H168.913C166.182 47.344 164.347 47.792 163.409 48.688C162.47 49.5413 162.001 50.608 162.001 51.888C162.001 53.3387 162.577 54.4907 163.729 55.344C164.881 56.1973 166.481 56.624 168.529 56.624C170.491 56.624 172.241 56.176 173.777 55.28C175.355 54.384 176.486 53.0613 177.169 51.312L178.513 56.112C177.745 58.1173 176.358 59.6747 174.353 60.784C172.39 61.8933 169.894 62.448 166.865 62.448Z" fill="white"/>
<path d="M229.581 62.256C226.467 62.256 223.651 61.552 221.133 60.144C218.659 58.6933 216.696 56.688 215.245 54.128C213.795 51.568 213.069 48.624 213.069 45.296C213.069 41.9253 213.795 38.9813 215.245 36.464C216.696 33.904 218.659 31.92 221.133 30.512C223.651 29.0613 226.467 28.336 229.581 28.336C232.525 28.336 235.171 29.0187 237.517 30.384C239.907 31.7493 241.784 33.6907 243.149 36.208C244.557 38.7253 245.261 41.7547 245.261 45.296C245.261 48.752 244.579 51.76 243.213 54.32C241.848 56.88 239.971 58.8427 237.581 60.208C235.235 61.5733 232.568 62.256 229.581 62.256ZM229.773 59.376C232.333 59.376 234.616 58.8 236.621 57.648C238.669 56.4533 240.269 54.7893 241.421 52.656C242.616 50.5227 243.213 48.0693 243.213 45.296C243.213 42.48 242.616 40.0267 241.421 37.936C240.269 35.8027 238.669 34.16 236.621 33.008C234.616 31.8133 232.333 31.216 229.773 31.216C227.213 31.216 224.909 31.8133 222.861 33.008C220.856 34.16 219.256 35.8027 218.061 37.936C216.909 40.0267 216.333 42.48 216.333 45.296C216.333 48.0693 216.909 50.5227 218.061 52.656C219.256 54.7893 220.856 56.4533 222.861 57.648C224.909 58.8 227.213 59.376 229.773 59.376ZM243.277 62V51.056L243.853 45.232L243.213 39.408V14.512H246.413V62H243.277ZM273.473 62.256C270.102 62.256 267.115 61.5307 264.513 60.08C261.953 58.6293 259.926 56.624 258.433 54.064C256.982 51.504 256.257 48.5813 256.257 45.296C256.257 41.968 256.939 39.0453 258.305 36.528C259.713 33.968 261.633 31.9627 264.065 30.512C266.497 29.0613 269.227 28.336 272.257 28.336C275.286 28.336 277.995 29.04 280.385 30.448C282.817 31.856 284.715 33.84 286.081 36.4C287.489 38.9173 288.193 41.84 288.193 45.168C288.193 45.296 288.171 45.4453 288.129 45.616C288.129 45.744 288.129 45.8933 288.129 46.064H258.625V43.568H286.401L285.121 44.784C285.163 42.1813 284.609 39.856 283.457 37.808C282.347 35.7173 280.833 34.096 278.913 32.944C276.993 31.7493 274.774 31.152 272.257 31.152C269.782 31.152 267.563 31.7493 265.601 32.944C263.681 34.096 262.166 35.7173 261.057 37.808C259.947 39.856 259.393 42.2027 259.393 44.848V45.424C259.393 48.1547 259.99 50.5867 261.185 52.72C262.422 54.8107 264.107 56.4533 266.241 57.648C268.374 58.8 270.806 59.376 273.537 59.376C275.67 59.376 277.654 58.992 279.489 58.224C281.366 57.456 282.945 56.2827 284.225 54.704L286.081 56.816C284.63 58.608 282.795 59.9733 280.577 60.912C278.401 61.808 276.033 62.256 273.473 62.256ZM315.17 62V23.472C315.17 20.6987 315.959 18.48 317.538 16.816C319.159 15.1093 321.463 14.256 324.45 14.256C325.687 14.256 326.903 14.448 328.098 14.832C329.292 15.1733 330.274 15.7067 331.042 16.432L329.762 18.864C329.122 18.224 328.354 17.7547 327.458 17.456C326.562 17.1573 325.602 17.008 324.578 17.008C322.53 17.008 320.972 17.584 319.906 18.736C318.839 19.8453 318.306 21.5093 318.306 23.728V29.36L318.37 30.896V62H315.17ZM309.026 31.344V28.592H328.994V31.344H309.026ZM355.961 62V54.384L355.833 53.232V40.688C355.833 37.5733 354.979 35.2053 353.273 33.584C351.609 31.9627 349.155 31.152 345.913 31.152C343.609 31.152 341.454 31.5573 339.449 32.368C337.486 33.136 335.801 34.1387 334.393 35.376L332.793 33.072C334.457 31.5787 336.462 30.4267 338.809 29.616C341.155 28.7627 343.609 28.336 346.169 28.336C350.307 28.336 353.486 29.3813 355.705 31.472C357.923 33.5627 359.033 36.6773 359.033 40.816V62H355.961ZM343.929 62.256C341.454 62.256 339.299 61.872 337.465 61.104C335.673 60.2933 334.286 59.1627 333.305 57.712C332.366 56.2613 331.897 54.5973 331.897 52.72C331.897 51.0133 332.281 49.4773 333.049 48.112C333.859 46.704 335.182 45.5733 337.017 44.72C338.851 43.824 341.305 43.376 344.377 43.376H356.665V45.872H344.441C340.985 45.872 338.553 46.512 337.145 47.792C335.779 49.072 335.097 50.672 335.097 52.592C335.097 54.7253 335.907 56.432 337.529 57.712C339.15 58.992 341.433 59.632 344.377 59.632C347.193 59.632 349.561 58.992 351.481 57.712C353.443 56.432 354.894 54.576 355.833 52.144L356.729 54.32C355.833 56.752 354.297 58.6933 352.121 60.144C349.987 61.552 347.257 62.256 343.929 62.256ZM372.217 62V28.592H375.289V37.744L374.969 36.72C375.908 34.032 377.487 31.9627 379.705 30.512C381.924 29.0613 384.697 28.336 388.025 28.336V31.472C387.897 31.472 387.769 31.472 387.641 31.472C387.513 31.4293 387.385 31.408 387.257 31.408C383.545 31.408 380.644 32.5813 378.553 34.928C376.463 37.232 375.417 40.4533 375.417 44.592V62H372.217ZM396.842 62V28.592H400.042V62H396.842ZM398.442 20.464C397.717 20.464 397.098 20.208 396.586 19.696C396.074 19.184 395.818 18.5867 395.818 17.904C395.818 17.1787 396.074 16.56 396.586 16.048C397.098 15.536 397.717 15.28 398.442 15.28C399.21 15.28 399.829 15.536 400.298 16.048C400.81 16.5173 401.066 17.1147 401.066 17.84C401.066 18.5653 400.81 19.184 400.298 19.696C399.829 20.208 399.21 20.464 398.442 20.464ZM434.586 62V54.384L434.458 53.232V40.688C434.458 37.5733 433.604 35.2053 431.898 33.584C430.234 31.9627 427.78 31.152 424.538 31.152C422.234 31.152 420.079 31.5573 418.074 32.368C416.111 33.136 414.426 34.1387 413.018 35.376L411.418 33.072C413.082 31.5787 415.087 30.4267 417.434 29.616C419.78 28.7627 422.234 28.336 424.794 28.336C428.932 28.336 432.111 29.3813 434.33 31.472C436.548 33.5627 437.658 36.6773 437.658 40.816V62H434.586ZM422.554 62.256C420.079 62.256 417.924 61.872 416.09 61.104C414.298 60.2933 412.911 59.1627 411.93 57.712C410.991 56.2613 410.522 54.5973 410.522 52.72C410.522 51.0133 410.906 49.4773 411.674 48.112C412.484 46.704 413.807 45.5733 415.642 44.72C417.476 43.824 419.93 43.376 423.002 43.376H435.29V45.872H423.066C419.61 45.872 417.178 46.512 415.77 47.792C414.404 49.072 413.722 50.672 413.722 52.592C413.722 54.7253 414.532 56.432 416.154 57.712C417.775 58.992 420.058 59.632 423.002 59.632C425.818 59.632 428.186 58.992 430.106 57.712C432.068 56.432 433.519 54.576 434.458 52.144L435.354 54.32C434.458 56.752 432.922 58.6933 430.746 60.144C428.612 61.552 425.882 62.256 422.554 62.256Z" fill="white"/>
<ellipse cx="454.348" cy="58.1176" rx="5.07085" ry="5.09804" fill="#F13024"/>
</svg>

